<svg width="243" height="16" viewBox="0 0 243 16" fill="none" xmlns="http://www.w3.org/2000/svg">
<path d="M7.63438 15.12C6.58104 15.12 5.60104 14.9467 4.69438 14.6C3.80104 14.24 3.02104 13.74 2.35438 13.1C1.70104 12.4467 1.18771 11.6933 0.814375 10.84C0.454375 9.97333 0.274375 9.02667 0.274375 8C0.274375 6.97333 0.454375 6.03333 0.814375 5.18C1.18771 4.31333 1.70104 3.56 2.35438 2.92C3.02104 2.26667 3.80104 1.76667 4.69438 1.42C5.58771 1.06 6.56771 0.879999 7.63438 0.879999C8.68771 0.879999 9.66104 1.06 10.5544 1.42C11.4477 1.76667 12.221 2.26 12.8744 2.9C13.541 3.54 14.0544 4.29333 14.4144 5.16C14.7877 6.02667 14.9744 6.97333 14.9744 8C14.9744 9.02667 14.7877 9.97333 14.4144 10.84C14.0544 11.7067 13.541 12.46 12.8744 13.1C12.221 13.74 11.4477 14.24 10.5544 14.6C9.66104 14.9467 8.68771 15.12 7.63438 15.12ZM7.63438 13.8C8.47438 13.8 9.24771 13.66 9.95438 13.38C10.6744 13.0867 11.2944 12.68 11.8144 12.16C12.3477 11.6267 12.761 11.0133 13.0544 10.32C13.3477 9.61333 13.4944 8.84 13.4944 8C13.4944 7.16 13.3477 6.39333 13.0544 5.7C12.761 4.99333 12.3477 4.38 11.8144 3.86C11.2944 3.32667 10.6744 2.92 9.95438 2.64C9.24771 2.34667 8.47438 2.2 7.63438 2.2C6.79438 2.2 6.01438 2.34667 5.29438 2.64C4.57438 2.92 3.94771 3.32667 3.41438 3.86C2.89438 4.38 2.48104 4.99333 2.17437 5.7C1.88104 6.39333 1.73438 7.16 1.73438 8C1.73438 8.82667 1.88104 9.59333 2.17437 10.3C2.48104 11.0067 2.89438 11.6267 3.41438 12.16C3.94771 12.68 4.57438 13.0867 5.29438 13.38C6.01438 13.66 6.79438 13.8 7.63438 13.8ZM18.2917 15V0.999999H19.5117L29.1717 13.16H28.5317V0.999999H29.9917V15H28.7717L19.1317 2.84H19.7717V15H18.2917ZM34.5613 15V0.999999H36.0413V13.72H43.8813V15H34.5613ZM46.3386 15V0.999999H47.8186V15H46.3386ZM52.3738 15V0.999999H53.5938L63.2538 13.16H62.6138V0.999999H64.0738V15H62.8538L53.2138 2.84H53.8538V15H52.3738ZM69.9633 7.26H77.3633V8.52H69.9633V7.26ZM70.1233 13.72H78.5433V15H68.6433V0.999999H78.2433V2.28H70.1233V13.72ZM97.4966 0.999999H98.9566V15H97.4966V0.999999ZM88.7366 15H87.2566V0.999999H88.7366V15ZM97.6366 8.54H88.5766V7.24H97.6366V8.54ZM104.846 7.26H112.246V8.52H104.846V7.26ZM105.006 13.72H113.426V15H103.526V0.999999H113.126V2.28H105.006V13.72ZM118.225 7.26H125.625V8.52H118.225V7.26ZM118.385 13.72H126.805V15H116.905V0.999999H126.505V2.28H118.385V13.72ZM130.284 15V0.999999H131.764V13.72H139.604V15H130.284ZM145.765 15.12C144.725 15.12 143.725 14.9533 142.765 14.62C141.818 14.2733 141.085 13.8333 140.565 13.3L141.145 12.16C141.638 12.64 142.298 13.0467 143.125 13.38C143.965 13.7 144.845 13.86 145.765 13.86C146.645 13.86 147.358 13.7533 147.905 13.54C148.465 13.3133 148.872 13.0133 149.125 12.64C149.392 12.2667 149.525 11.8533 149.525 11.4C149.525 10.8533 149.365 10.4133 149.045 10.08C148.738 9.74667 148.332 9.48667 147.825 9.3C147.318 9.1 146.758 8.92667 146.145 8.78C145.532 8.63333 144.918 8.48 144.305 8.32C143.692 8.14667 143.125 7.92 142.605 7.64C142.098 7.36 141.685 6.99333 141.365 6.54C141.058 6.07333 140.905 5.46667 140.905 4.72C140.905 4.02667 141.085 3.39333 141.445 2.82C141.818 2.23333 142.385 1.76667 143.145 1.42C143.905 1.06 144.878 0.879999 146.065 0.879999C146.852 0.879999 147.632 0.993333 148.405 1.22C149.178 1.43333 149.845 1.73333 150.405 2.12L149.905 3.3C149.305 2.9 148.665 2.60667 147.985 2.42C147.318 2.23333 146.672 2.14 146.045 2.14C145.205 2.14 144.512 2.25333 143.965 2.48C143.418 2.70667 143.012 3.01333 142.745 3.4C142.492 3.77333 142.365 4.2 142.365 4.68C142.365 5.22667 142.518 5.66667 142.825 6C143.145 6.33333 143.558 6.59333 144.065 6.78C144.585 6.96667 145.152 7.13333 145.765 7.28C146.378 7.42667 146.985 7.58667 147.585 7.76C148.198 7.93333 148.758 8.16 149.265 8.44C149.785 8.70667 150.198 9.06667 150.505 9.52C150.825 9.97333 150.985 10.5667 150.985 11.3C150.985 11.98 150.798 12.6133 150.425 13.2C150.052 13.7733 149.478 14.24 148.705 14.6C147.945 14.9467 146.965 15.12 145.765 15.12Z" fill="white"/>
<path d="M165.524 15.12C164.471 15.12 163.497 14.9467 162.604 14.6C161.711 14.24 160.937 13.74 160.284 13.1C159.631 12.46 159.117 11.7067 158.744 10.84C158.384 9.97333 158.204 9.02667 158.204 8C158.204 6.97333 158.384 6.02667 158.744 5.16C159.117 4.29333 159.631 3.54 160.284 2.9C160.951 2.26 161.731 1.76667 162.624 1.42C163.517 1.06 164.491 0.879999 165.544 0.879999C166.557 0.879999 167.511 1.05333 168.404 1.4C169.297 1.73333 170.051 2.24 170.664 2.92L169.724 3.86C169.151 3.27333 168.517 2.85333 167.824 2.6C167.131 2.33333 166.384 2.2 165.584 2.2C164.744 2.2 163.964 2.34667 163.244 2.64C162.524 2.92 161.897 3.32667 161.364 3.86C160.831 4.38 160.411 4.99333 160.104 5.7C159.811 6.39333 159.664 7.16 159.664 8C159.664 8.84 159.811 9.61333 160.104 10.32C160.411 11.0133 160.831 11.6267 161.364 12.16C161.897 12.68 162.524 13.0867 163.244 13.38C163.964 13.66 164.744 13.8 165.584 13.8C166.384 13.8 167.131 13.6667 167.824 13.4C168.517 13.1333 169.151 12.7067 169.724 12.12L170.664 13.06C170.051 13.74 169.297 14.2533 168.404 14.6C167.511 14.9467 166.551 15.12 165.524 15.12ZM179.646 15.12C178.593 15.12 177.613 14.9467 176.706 14.6C175.813 14.24 175.033 13.74 174.366 13.1C173.713 12.4467 173.199 11.6933 172.826 10.84C172.466 9.97333 172.286 9.02667 172.286 8C172.286 6.97333 172.466 6.03333 172.826 5.18C173.199 4.31333 173.713 3.56 174.366 2.92C175.033 2.26667 175.813 1.76667 176.706 1.42C177.599 1.06 178.579 0.879999 179.646 0.879999C180.699 0.879999 181.673 1.06 182.566 1.42C183.459 1.76667 184.233 2.26 184.886 2.9C185.553 3.54 186.066 4.29333 186.426 5.16C186.799 6.02667 186.986 6.97333 186.986 8C186.986 9.02667 186.799 9.97333 186.426 10.84C186.066 11.7067 185.553 12.46 184.886 13.1C184.233 13.74 183.459 14.24 182.566 14.6C181.673 14.9467 180.699 15.12 179.646 15.12ZM179.646 13.8C180.486 13.8 181.259 13.66 181.966 13.38C182.686 13.0867 183.306 12.68 183.826 12.16C184.359 11.6267 184.773 11.0133 185.066 10.32C185.359 9.61333 185.506 8.84 185.506 8C185.506 7.16 185.359 6.39333 185.066 5.7C184.773 4.99333 184.359 4.38 183.826 3.86C183.306 3.32667 182.686 2.92 181.966 2.64C181.259 2.34667 180.486 2.2 179.646 2.2C178.806 2.2 178.026 2.34667 177.306 2.64C176.586 2.92 175.959 3.32667 175.426 3.86C174.906 4.38 174.493 4.99333 174.186 5.7C173.893 6.39333 173.746 7.16 173.746 8C173.746 8.82667 173.893 9.59333 174.186 10.3C174.493 11.0067 174.906 11.6267 175.426 12.16C175.959 12.68 176.586 13.0867 177.306 13.38C178.026 13.66 178.806 13.8 179.646 13.8ZM195.943 15.12C194.157 15.12 192.75 14.6067 191.723 13.58C190.697 12.5533 190.183 11.0333 190.183 9.02V0.999999H191.663V8.96C191.663 10.6133 192.037 11.8333 192.783 12.62C193.53 13.4067 194.583 13.8 195.943 13.8C197.317 13.8 198.377 13.4067 199.123 12.62C199.87 11.8333 200.243 10.6133 200.243 8.96V0.999999H201.683V9.02C201.683 11.0333 201.17 12.5533 200.143 13.58C199.13 14.6067 197.73 15.12 195.943 15.12ZM206.143 15V0.999999H211.383C212.57 0.999999 213.59 1.19333 214.443 1.58C215.297 1.95333 215.95 2.5 216.403 3.22C216.87 3.92667 217.103 4.78667 217.103 5.8C217.103 6.78667 216.87 7.64 216.403 8.36C215.95 9.06667 215.297 9.61333 214.443 10C213.59 10.3733 212.57 10.56 211.383 10.56H206.963L207.623 9.88V15H206.143ZM215.703 15L212.103 9.92H213.703L217.323 15H215.703ZM207.623 10L206.963 9.3H211.343C212.743 9.3 213.803 8.99333 214.523 8.38C215.257 7.76667 215.623 6.90667 215.623 5.8C215.623 4.68 215.257 3.81333 214.523 3.2C213.803 2.58667 212.743 2.28 211.343 2.28H206.963L207.623 1.58V10ZM224.456 15.12C223.416 15.12 222.416 14.9533 221.456 14.62C220.51 14.2733 219.776 13.8333 219.256 13.3L219.836 12.16C220.33 12.64 220.99 13.0467 221.816 13.38C222.656 13.7 223.536 13.86 224.456 13.86C225.336 13.86 226.05 13.7533 226.596 13.54C227.156 13.3133 227.563 13.0133 227.816 12.64C228.083 12.2667 228.216 11.8533 228.216 11.4C228.216 10.8533 228.056 10.4133 227.736 10.08C227.43 9.74667 227.023 9.48667 226.516 9.3C226.01 9.1 225.45 8.92667 224.836 8.78C224.223 8.63333 223.61 8.48 222.996 8.32C222.383 8.14667 221.816 7.92 221.296 7.64C220.79 7.36 220.376 6.99333 220.056 6.54C219.75 6.07333 219.596 5.46667 219.596 4.72C219.596 4.02667 219.776 3.39333 220.136 2.82C220.51 2.23333 221.076 1.76667 221.836 1.42C222.596 1.06 223.57 0.879999 224.756 0.879999C225.543 0.879999 226.323 0.993333 227.096 1.22C227.87 1.43333 228.536 1.73333 229.096 2.12L228.596 3.3C227.996 2.9 227.356 2.60667 226.676 2.42C226.01 2.23333 225.363 2.14 224.736 2.14C223.896 2.14 223.203 2.25333 222.656 2.48C222.11 2.70667 221.703 3.01333 221.436 3.4C221.183 3.77333 221.056 4.2 221.056 4.68C221.056 5.22667 221.21 5.66667 221.516 6C221.836 6.33333 222.25 6.59333 222.756 6.78C223.276 6.96667 223.843 7.13333 224.456 7.28C225.07 7.42667 225.676 7.58667 226.276 7.76C226.89 7.93333 227.45 8.16 227.956 8.44C228.476 8.70667 228.89 9.06667 229.196 9.52C229.516 9.97333 229.676 10.5667 229.676 11.3C229.676 11.98 229.49 12.6133 229.116 13.2C228.743 13.7733 228.17 14.24 227.396 14.6C226.636 14.9467 225.656 15.12 224.456 15.12ZM234.221 7.26H241.621V8.52H234.221V7.26ZM234.381 13.72H242.801V15H232.901V0.999999H242.501V2.28H234.381V13.72Z" fill="#F921FF"/>
</svg>
