<svg width="20" height="18" viewBox="0 0 20 18" fill="none" xmlns="http://www.w3.org/2000/svg">
<path d="M17.1231 9.7848L16.4636 10.5994L11.9264 16.2043L17.1231 9.7848ZM17.1231 9.7848H16.075M17.1231 9.7848H16.075M16.075 9.7848H1.25C1.05569 9.7848 0.866403 9.70554 0.724599 9.5597C0.582331 9.41338 0.5 9.21201 0.5 8.9992C0.5 8.78638 0.582331 8.58502 0.724599 8.4387C0.866403 8.29285 1.05569 8.2136 1.25 8.2136H16.075H17.1231L16.4636 7.399L11.9261 1.79379L11.926 1.79362C11.8619 1.71451 11.813 1.6224 11.7828 1.52235C11.7525 1.42229 11.7417 1.31677 11.7511 1.21201C11.7605 1.10725 11.7898 1.00592 11.837 0.913859C11.8842 0.821825 11.9481 0.741211 12.0244 0.676158C12.1597 0.560886 12.3277 0.499657 12.499 0.500005L12.5008 0.500002C12.6088 0.499821 12.7159 0.524075 12.8148 0.571611C12.9137 0.619173 13.0024 0.689143 13.0739 0.777496L13.074 0.77759L19.3101 8.47407M16.075 9.7848L12.5 2.45595e-06C12.6836 -0.000304265 12.8651 0.0410068 13.0314 0.120998C13.1978 0.20099 13.345 0.317696 13.4625 0.462818L19.7125 8.17641M19.7125 8.17641L19.3001 8.45907C19.3035 8.46404 19.3068 8.46904 19.3101 8.47407M19.7125 8.17641C19.7545 8.23777 19.7922 8.30222 19.825 8.36925M19.7125 8.17641L19.825 8.36925M19.3101 8.47407C19.3322 8.50749 19.3524 8.5423 19.3706 8.57831M19.3101 8.47407L19.3706 8.57831M19.3706 8.57831C19.3934 8.63003 19.4189 8.67008 19.437 8.69638C19.438 8.69789 19.439 8.69937 19.44 8.70083L19.4458 8.71577C19.4804 8.80574 19.4988 8.90182 19.5 8.9992C19.499 9.08362 19.485 9.16709 19.4587 9.24643C19.4576 9.24797 19.4565 9.2495 19.4554 9.25097L19.4537 9.25322C19.4344 9.27973 19.3814 9.35224 19.3497 9.45927C19.3373 9.48147 19.3241 9.50318 19.3101 9.52433L13.074 17.2208L13.0736 17.2213C12.9444 17.3812 12.7618 17.4784 12.5677 17.4968C12.3738 17.5152 12.1785 17.454 12.0249 17.3226C11.8707 17.1909 11.7707 16.9985 11.7517 16.7863C11.7423 16.6815 11.7531 16.576 11.7833 16.4758C11.8135 16.3759 11.8622 16.2838 11.9261 16.2046L19.3706 8.57831ZM19.825 8.36925C19.8352 8.3956 19.8518 8.41762 19.8678 8.43887C19.8907 8.46946 19.9125 8.49844 19.9125 8.53638L19.825 8.36925Z" stroke="white"/>
</svg>
