<svg width="20" height="18" viewBox="0 0 20 18" fill="none" xmlns="http://www.w3.org/2000/svg">
<path d="M2.87695 9.7848L3.53638 10.5994L8.07362 16.2043L2.87695 9.7848ZM2.87695 9.7848H3.925M2.87695 9.7848H3.925M3.925 9.7848H18.75C18.9443 9.7848 19.1336 9.70554 19.2754 9.5597C19.4177 9.41338 19.5 9.21201 19.5 8.9992C19.5 8.78638 19.4177 8.58502 19.2754 8.4387C19.1336 8.29285 18.9443 8.2136 18.75 8.2136H3.925H2.87695L3.53638 7.399L8.07388 1.79379L8.07401 1.79362C8.13811 1.71451 8.187 1.6224 8.21724 1.52235C8.24748 1.42229 8.25831 1.31677 8.24892 1.21201C8.23953 1.10725 8.21016 1.00592 8.16296 0.913859C8.11578 0.821825 8.05188 0.741211 7.97559 0.676158C7.84028 0.560886 7.67229 0.499657 7.50101 0.500005L7.49916 0.500002C7.39123 0.499821 7.28409 0.524075 7.18523 0.571611C7.08632 0.619173 6.99761 0.689143 6.92606 0.777496L6.92598 0.77759L0.689852 8.47407M3.925 9.7848L7.5 2.45595e-06C7.31636 -0.000304265 7.13491 0.0410068 6.96856 0.120998C6.8022 0.20099 6.65503 0.317696 6.5375 0.462818L0.287498 8.17641M0.287498 8.17641L0.699934 8.45907C0.696531 8.46404 0.693171 8.46904 0.689852 8.47407M0.287498 8.17641C0.245451 8.23777 0.207848 8.30222 0.174999 8.36925M0.287498 8.17641L0.174999 8.36925M0.689852 8.47407C0.667793 8.50749 0.647615 8.5423 0.629442 8.57831M0.689852 8.47407L0.629442 8.57831M0.629442 8.57831C0.606575 8.63003 0.581076 8.67008 0.563026 8.69638C0.561993 8.69789 0.560968 8.69937 0.559954 8.70083L0.554211 8.71577C0.51963 8.80574 0.501184 8.90182 0.500023 8.9992C0.50103 9.08362 0.515036 9.16709 0.541281 9.24643C0.542419 9.24797 0.543543 9.2495 0.544617 9.25097L0.546255 9.25322C0.565632 9.27973 0.618639 9.35224 0.65027 9.45927C0.662689 9.48147 0.675894 9.50318 0.689852 9.52433L6.92598 17.2208L6.92638 17.2213C7.05558 17.3812 7.2382 17.4784 7.4323 17.4968C7.62624 17.5152 7.82147 17.454 7.97511 17.3226C8.12927 17.1909 8.22925 16.9985 8.24827 16.7863C8.25767 16.6815 8.24687 16.576 8.21668 16.4758C8.18653 16.3759 8.13779 16.2838 8.07388 16.2046L0.629442 8.57831ZM0.174999 8.36925C0.164753 8.3956 0.148209 8.41762 0.13225 8.43887C0.109268 8.46946 0.0874996 8.49844 0.0874996 8.53638L0.174999 8.36925Z" stroke="white"/>
</svg>
