<svg width="20" height="17" viewBox="0 0 20 17" fill="none" xmlns="http://www.w3.org/2000/svg">
<path d="M17.5794 2.53501C17.9284 2.9005 17.9284 3.48153 17.5794 3.84702L7.43177 14.4744C7.34987 14.5612 7.25233 14.6301 7.1448 14.6772C7.03728 14.7242 6.9219 14.7484 6.80537 14.7484C6.68884 14.7484 6.57346 14.7242 6.46594 14.6772C6.35841 14.6301 6.26087 14.5612 6.17897 14.4744L2.42058 10.5383C2.33768 10.4525 2.27186 10.3504 2.22694 10.2378C2.18202 10.1252 2.15889 10.0043 2.15889 9.8823C2.15889 9.76026 2.18202 9.63944 2.22694 9.52683C2.27186 9.41422 2.33768 9.31207 2.42058 9.2263C2.50248 9.13948 2.60002 9.07055 2.70755 9.0235C2.81507 8.97646 2.93045 8.95224 3.04698 8.95224C3.16351 8.95224 3.27889 8.97646 3.38641 9.0235C3.49394 9.07055 3.59148 9.13948 3.67338 9.2263L6.80537 12.5063L16.3266 2.53501C16.4085 2.44819 16.5061 2.37926 16.6136 2.33221C16.7211 2.28517 16.8365 2.26094 16.953 2.26094C17.0696 2.26094 17.1849 2.28517 17.2924 2.33221C17.4 2.37926 17.4975 2.44819 17.5794 2.53501ZM15.6913 0.548236L6.80537 9.85419L4.30872 7.23953C3.61074 6.50854 2.47427 6.50854 1.77629 7.23953L0.52349 8.55154C-0.174497 9.28253 -0.174497 10.4727 0.52349 11.2037L5.53468 16.4518C6.23266 17.1827 7.36913 17.1827 8.06711 16.4518L19.4765 4.5124C20.1745 3.78142 20.1745 2.59123 19.4765 1.86025L18.2237 0.548236C17.5168 -0.182745 16.3893 -0.182745 15.6913 0.548236Z" fill="white" fill-opacity="0.8"/>
</svg>
