<svg width="0" height="0" class="hidden">
  <symbol fill="none" xmlns="http://www.w3.org/2000/svg" viewBox="0 0 44 44" id="inst">
    <path fill-rule="evenodd" clip-rule="evenodd" d="M12.93 0.132C15.276 0.024 16.024 0 22 0C27.976 0 28.724 0.026 31.068 0.132C33.412 0.238 35.012 0.612 36.412 1.154C37.878 1.708 39.208 2.574 40.308 3.694C41.428 4.792 42.292 6.12 42.844 7.588C43.388 8.988 43.76 10.588 43.868 12.928C43.976 15.278 44 16.026 44 22C44 27.976 43.974 28.724 43.868 31.07C43.762 33.41 43.388 35.01 42.844 36.41C42.292 37.8782 41.4266 39.2084 40.308 40.308C39.208 41.428 37.878 42.292 36.412 42.844C35.012 43.388 33.412 43.76 31.072 43.868C28.724 43.976 27.976 44 22 44C16.024 44 15.276 43.974 12.93 43.868C10.59 43.762 8.99 43.388 7.59 42.844C6.12184 42.2919 4.79164 41.4265 3.692 40.308C2.57276 39.2093 1.70663 37.8798 1.154 36.412C0.612 35.012 0.24 33.412 0.132 31.072C0.024 28.722 0 27.974 0 22C0 16.024 0.026 15.276 0.132 12.932C0.238 10.588 0.612 8.988 1.154 7.588C1.70745 6.12016 2.57424 4.79063 3.694 3.692C4.79208 2.573 6.12094 1.70689 7.588 1.154C8.988 0.612 10.588 0.24 12.928 0.132H12.93ZM30.89 4.092C28.57 3.986 27.874 3.964 22 3.964C16.126 3.964 15.43 3.986 13.11 4.092C10.964 4.19 9.8 4.548 9.024 4.85C7.998 5.25 7.264 5.724 6.494 6.494C5.76409 7.2041 5.20236 8.06856 4.85 9.024C4.548 9.8 4.19 10.964 4.092 13.11C3.986 15.43 3.964 16.126 3.964 22C3.964 27.874 3.986 28.57 4.092 30.89C4.19 33.036 4.548 34.2 4.85 34.976C5.202 35.93 5.764 36.796 6.494 37.506C7.204 38.236 8.07 38.798 9.024 39.15C9.8 39.452 10.964 39.81 13.11 39.908C15.43 40.014 16.124 40.036 22 40.036C27.876 40.036 28.57 40.014 30.89 39.908C33.036 39.81 34.2 39.452 34.976 39.15C36.002 38.75 36.736 38.276 37.506 37.506C38.236 36.796 38.798 35.93 39.15 34.976C39.452 34.2 39.81 33.036 39.908 30.89C40.014 28.57 40.036 27.874 40.036 22C40.036 16.126 40.014 15.43 39.908 13.11C39.81 10.964 39.452 9.8 39.15 9.024C38.75 7.998 38.276 7.264 37.506 6.494C36.7959 5.76414 35.9314 5.20242 34.976 4.85C34.2 4.548 33.036 4.19 30.89 4.092ZM19.19 28.782C20.7593 29.4353 22.5068 29.5234 24.1339 29.0314C25.761 28.5395 27.1668 27.4978 28.1112 26.0845C29.0557 24.6711 29.4801 22.9737 29.3121 21.2822C29.1441 19.5907 28.394 18.0099 27.19 16.81C26.4225 16.043 25.4944 15.4556 24.4727 15.0903C23.4509 14.725 22.3609 14.5907 21.281 14.6972C20.2011 14.8037 19.1583 15.1484 18.2276 15.7063C17.2969 16.2642 16.5015 17.0215 15.8986 17.9237C15.2957 18.8259 14.9004 19.8506 14.741 20.9239C14.5817 21.9973 14.6623 23.0926 14.9771 24.131C15.2919 25.1695 15.833 26.1252 16.5614 26.9294C17.2899 27.7337 18.1876 28.3664 19.19 28.782ZM14.004 14.004C15.054 12.9539 16.3006 12.121 17.6726 11.5527C19.0446 10.9844 20.515 10.6919 22 10.6919C23.485 10.6919 24.9554 10.9844 26.3274 11.5527C27.6994 12.121 28.946 12.9539 29.996 14.004C31.046 15.054 31.879 16.3006 32.4473 17.6726C33.0156 19.0446 33.3081 20.515 33.3081 22C33.3081 23.485 33.0156 24.9554 32.4473 26.3274C31.879 27.6994 31.046 28.946 29.996 29.996C27.8753 32.1167 24.9991 33.3081 22 33.3081C19.0009 33.3081 16.1247 32.1167 14.004 29.996C11.8833 27.8753 10.6919 24.9991 10.6919 22C10.6919 19.0009 11.8833 16.1247 14.004 14.004ZM35.816 12.376C36.0762 12.1305 36.2845 11.8354 36.4286 11.5079C36.5727 11.1805 36.6496 10.8275 36.6548 10.4699C36.66 10.1122 36.5934 9.7571 36.459 9.42562C36.3245 9.09414 36.1249 8.79302 35.8719 8.54008C35.619 8.28714 35.3179 8.08751 34.9864 7.95304C34.6549 7.81856 34.2998 7.75195 33.9421 7.75717C33.5845 7.76238 33.2315 7.83931 32.9041 7.98339C32.5766 8.12748 32.2815 8.33579 32.036 8.596C31.5586 9.10206 31.2973 9.77424 31.3074 10.4699C31.3175 11.1655 31.5984 11.8298 32.0903 12.3217C32.5822 12.8136 33.2465 13.0945 33.9421 13.1046C34.6378 13.1147 35.3099 12.8534 35.816 12.376Z" fill="white"></path>
  </symbol>
  <symbol fill="none" xmlns="http://www.w3.org/2000/svg" viewBox="0 0 44 44" id="telegram">
    <path d="M42.9969 0.788294C42.5971 0.404897 42.1106 0.149085 41.5895 0.048241C41.0684 -0.0526031 40.5323 0.00531775 40.0387 0.215803L1.84995 16.818C1.264 17.0693 0.767777 17.5247 0.436153 18.1156C0.104529 18.7064 -0.0445023 19.4006 0.0115469 20.0934C0.0675961 20.7863 0.325684 21.4401 0.74687 21.9563C1.16805 22.4725 1.72949 22.8231 2.34645 22.9551L12.3798 25.1764V38.962C12.3805 39.5936 12.5497 40.211 12.8662 40.7365C13.1827 41.2621 13.6324 41.6724 14.1589 41.916C14.5139 42.0762 14.8927 42.1616 15.276 42.1679C15.6567 42.1705 16.034 42.0887 16.3857 41.9275C16.7374 41.7663 17.0565 41.5288 17.324 41.229L22.9717 34.9774L31.4121 43.1984C31.9349 43.7173 32.6131 44.003 33.3153 43.9999C33.6179 44.0027 33.9187 43.9485 34.2048 43.8396C34.6826 43.6715 35.1119 43.3671 35.4496 42.9571C35.7873 42.5471 36.0216 42.0459 36.1288 41.5038L43.9279 3.92554C44.0444 3.35833 44.0194 2.7667 43.8554 2.21404C43.6914 1.66139 43.3946 1.16853 42.9969 0.788294ZM2.51195 19.8408C2.49748 19.7443 2.51451 19.6452 2.55999 19.5613C2.60547 19.4774 2.67644 19.4141 2.76019 19.3828L34.722 5.48272L13.3314 22.5887L2.84294 20.253C2.75152 20.2417 2.66711 20.1933 2.606 20.1172C2.54488 20.0411 2.51138 19.9426 2.51195 19.8408ZM15.5656 39.2826C15.5082 39.3491 15.4333 39.3939 15.3515 39.4103C15.2697 39.4268 15.1854 39.4141 15.1105 39.3742C15.0378 39.3391 14.9757 39.2815 14.9317 39.2084C14.8877 39.1354 14.8636 39.0498 14.8622 38.962V27.0771L21.0891 33.1684L15.5656 39.2826ZM33.729 40.8855C33.7149 40.965 33.682 41.0388 33.6337 41.0996C33.5853 41.1604 33.5233 41.2059 33.4539 41.2315C33.3846 41.2571 33.3103 41.2619 33.2387 41.2453C33.1671 41.2288 33.1007 41.1916 33.0464 41.1374L15.607 24.1459L41.4661 3.49045L33.729 40.8855Z" fill="white"></path>
  </symbol>
  <symbol fill="none" xmlns="http://www.w3.org/2000/svg" viewBox="0 0 44 44" id="tt">
    <path d="M41.5556 11.2027C39.1784 11.2027 36.8987 10.2753 35.2178 8.62459C33.5369 6.97388 32.5926 4.73503 32.5926 2.40057C32.5926 1.7639 32.3351 1.15331 31.8766 0.703111C31.4182 0.252917 30.7965 0 30.1481 0H22C21.3517 0 20.7299 0.252917 20.2715 0.703111C19.8131 1.15331 19.5556 1.7639 19.5556 2.40057V28.0067C19.5556 28.8556 19.2122 29.6697 18.6009 30.2699C17.9897 30.8702 17.1607 31.2074 16.2963 31.2074C15.4319 31.2074 14.6029 30.8702 13.9917 30.2699C13.3804 29.6697 13.037 28.8556 13.037 28.0067C13.0417 27.4019 13.2176 26.8103 13.5449 26.2981C13.8723 25.7858 14.3382 25.3731 14.8907 25.106C15.309 24.9131 15.663 24.6078 15.9118 24.2254C16.1606 23.843 16.2939 23.3992 16.2963 22.9455V14.6235C16.2976 14.2722 16.2197 13.9251 16.0683 13.6069C15.9168 13.2887 15.6956 13.0074 15.4204 12.783C15.1481 12.555 14.8283 12.3885 14.4833 12.2951C14.1384 12.2018 13.7768 12.184 13.4241 12.2429C10.3728 12.7794 7.54064 14.1595 5.25991 16.2211C2.97917 18.2827 1.34448 20.9403 0.54764 23.8822C-0.249201 26.8241 -0.175134 29.9281 0.761149 32.8301C1.69743 35.7321 3.45709 38.3116 5.83365 40.266C8.21022 42.2205 11.1051 43.4687 14.1786 43.8643C17.2521 44.2599 20.3768 43.7864 23.1859 42.4994C25.9951 41.2124 28.3722 39.1653 30.0383 36.5983C31.7045 34.0313 32.5906 31.0508 32.5926 28.0067V22.1453C35.414 23.3768 38.468 24.0107 41.5556 24.0057C42.2039 24.0057 42.8256 23.7528 43.284 23.3026C43.7425 22.8524 44 22.2418 44 21.6051V13.6032C44 12.9666 43.7425 12.356 43.284 11.9058C42.8256 11.4556 42.2039 11.2027 41.5556 11.2027ZM39.1111 19.0445C36.388 18.6599 33.8012 17.63 31.5741 16.0438C31.2059 15.7904 30.7747 15.6399 30.3263 15.6082C29.8779 15.5765 29.4291 15.6648 29.0278 15.8638C28.6293 16.0681 28.2953 16.3755 28.0619 16.7528C27.8286 17.1301 27.7047 17.5628 27.7037 18.0043V28.0067C27.7036 30.0114 27.1556 31.9794 26.117 33.7054C25.0785 35.4313 23.5873 36.8519 21.7991 37.819C20.0109 38.7861 17.9912 39.2642 15.9507 39.2035C13.9102 39.1427 11.9237 38.5454 10.1985 37.4737C8.47319 36.4021 7.07236 34.8954 6.14211 33.1109C5.21186 31.3263 4.78628 29.3294 4.90978 27.3282C5.03327 25.3271 5.70131 23.3952 6.84421 21.7341C7.9871 20.073 9.56297 18.7434 11.4074 17.8843V21.6051C10.2963 22.4235 9.41662 23.5073 8.85194 24.7534C8.28727 25.9996 8.05634 27.3668 8.18107 28.7253C8.3058 30.0837 8.78206 31.3883 9.56462 32.5152C10.3472 33.6421 11.4101 34.5538 12.6523 35.1638C13.8946 35.7738 15.275 36.0618 16.6625 36.0005C18.05 35.9392 19.3986 35.5306 20.58 34.8135C21.7615 34.0964 22.7367 33.0946 23.4131 31.9033C24.0894 30.712 24.4444 29.3706 24.4444 28.0067V4.80114H27.9278C28.4251 7.53494 29.7638 10.0533 31.7633 12.017C33.7629 13.9807 36.3274 15.2953 39.1111 15.7838V19.0445Z" fill="white"></path>
  </symbol>
   <symbol  xmlns="http://www.w3.org/2000/svg" viewBox="0 0 20 20" id="footer-inst">
   <path d="M17 1H3c-1.1 0-2 .9-2 2v14c0 1.101.9 2 2 2h14c1.1 0 2-.899 2-2V3c0-1.1-.9-2-2-2zM9.984 15.523a5.539 5.539 0 0 0 5.538-5.539c0-.338-.043-.664-.103-.984H17v7.216a.69.69 0 0 1-.693.69H3.693a.69.69 0 0 1-.693-.69V9h1.549c-.061.32-.104.646-.104.984a5.54 5.54 0 0 0 5.539 5.539zM6.523 9.984a3.461 3.461 0 1 1 6.922 0a3.461 3.461 0 0 1-6.922 0zM16.307 6h-1.615A.694.694 0 0 1 14 5.308V3.691c0-.382.31-.691.691-.691h1.615c.384 0 .694.309.694.691v1.616c0 .381-.31.693-.693.693z"/>
  </symbol>
  <symbol xmlns="http://www.w3.org/2000/svg" viewBox="0 0 24 24" id="footer-telegram" preserveAspectRatio="xMidYMid meet">
   <path d="m20.665 3.717l-17.73 6.837c-1.21.486-1.203 1.161-.222 1.462l4.552 1.42l10.532-6.645c.498-.303.953-.14.579.192l-8.533 7.701h-.002l.002.001l-.314 4.692c.46 0 .663-.211.921-.46l2.211-2.15l4.599 3.397c.848.467 1.457.227 1.668-.785l3.019-14.228c.309-1.239-.473-1.8-1.282-1.434z"/>
  </symbol>
  <symbol xmlns="http://www.w3.org/2000/svg" viewBox="0 0 24 24" id="footer-tt">
    <path d="M19.321 5.562a5.124 5.124 0 0 1-.443-.258a6.228 6.228 0 0 1-1.137-.966c-.849-.971-1.166-1.956-1.282-2.645h.004c-.097-.573-.057-.943-.05-.943h-3.865v14.943c0 .2 0 .399-.008.595c0 .024-.003.046-.004.073c0 .01 0 .022-.003.033v.009a3.28 3.28 0 0 1-1.65 2.604a3.226 3.226 0 0 1-1.6.422c-1.8 0-3.26-1.468-3.26-3.281c0-1.814 1.46-3.282 3.26-3.282c.341 0 .68.054 1.004.16l.005-3.936a7.178 7.178 0 0 0-5.532 1.62a7.583 7.583 0 0 0-1.655 2.04c-.163.281-.779 1.412-.853 3.246c-.047 1.04.266 2.12.415 2.565v.01c.093.262.457 1.158 1.049 1.913a7.856 7.856 0 0 0 1.674 1.58v-.01l.009.01c1.87 1.27 3.945 1.187 3.945 1.187c.359-.015 1.562 0 2.928-.647c1.515-.718 2.377-1.787 2.377-1.787a7.43 7.43 0 0 0 1.296-2.153c.35-.92.466-2.022.466-2.462V8.273c.047.028.672.441.672.441s.9.577 2.303.952c1.006.267 2.363.324 2.363.324V6.153c-.475.052-1.44-.098-2.429-.59Z"/>
  </symbol>
  <symbol  xmlns="http://www.w3.org/2000/svg" viewBox="0 0 24 24" id="footer-youtube">
  <path d="M12 2C6.486 2 2 6.486 2 12s4.486 10 10 10s10-4.486 10-10S17.514 2 12 2zm0 18c-4.411 0-8-3.589-8-8s3.589-8 8-8s8 3.589 8 8s-3.589 8-8 8z"/><path d="m9 17l8-5l-8-5z"/>
  </symbol>
  <symbol xmlns="http://www.w3.org/2000/svg" viewBox="0 0 24 25" id="next">
    <path fill-rule="evenodd" clip-rule="evenodd" d="M12 23C14.7848 23 17.4555 21.8938 19.4246 19.9246C21.3938 17.9555 22.5 15.2848 22.5 12.5C22.5 9.71523 21.3938 7.04451 19.4246 5.07538C17.4555 3.10625 14.7848 2 12 2C9.21523 2 6.54451 3.10625 4.57538 5.07538C2.60625 7.04451 1.5 9.71523 1.5 12.5C1.5 15.2848 2.60625 17.9555 4.57538 19.9246C6.54451 21.8938 9.21523 23 12 23ZM12 0.5C15.1826 0.5 18.2348 1.76428 20.4853 4.01472C22.7357 6.26515 24 9.3174 24 12.5C24 15.6826 22.7357 18.7348 20.4853 20.9853C18.2348 23.2357 15.1826 24.5 12 24.5C8.8174 24.5 5.76516 23.2357 3.51472 20.9853C1.26428 18.7348 0 15.6826 0 12.5C0 9.3174 1.26428 6.26515 3.51472 4.01472C5.76516 1.76428 8.8174 0.5 12 0.5ZM6.75 11.75C6.55109 11.75 6.36032 11.829 6.21967 11.9697C6.07902 12.1103 6 12.3011 6 12.5C6 12.6989 6.07902 12.8897 6.21967 13.0303C6.36032 13.171 6.55109 13.25 6.75 13.25L15.4395 13.25L12.219 16.469C12.0782 16.6098 11.9991 16.8008 11.9991 17C11.9991 17.1992 12.0782 17.3902 12.219 17.531C12.3598 17.6718 12.5508 17.7509 12.75 17.7509C12.9492 17.7509 13.1402 17.6718 13.281 17.531L17.781 13.031C17.8508 12.9613 17.9063 12.8786 17.9441 12.7875C17.9819 12.6963 18.0013 12.5987 18.0013 12.5C18.0013 12.4013 17.9819 12.3037 17.9441 12.2126C17.9063 12.1214 17.8508 12.0387 17.781 11.969L13.281 7.469C13.1402 7.32817 12.9492 7.24905 12.75 7.24905C12.5508 7.24905 12.3598 7.32817 12.219 7.469C12.0782 7.60983 11.9991 7.80084 11.9991 8C11.9991 8.19916 12.0782 8.39017 12.219 8.531L15.4395 11.75L6.75 11.75Z"></path>
  </symbol>
  <symbol xmlns="http://www.w3.org/2000/svg" xmlns:xlink="http://www.w3.org/1999/xlink" preserveAspectRatio="xMidYMid meet" viewBox="0 0 256 256" id="pause">
    <path fill-rule="evenodd" d="M46.677 64.652c0-9.362 7.132-17.387 16.447-17.394c9.315-.007 24.677.007 34.55.007c9.875 0 17.138 7.594 17.138 16.998c0 9.403-.083 119.094-.083 127.82c0 8.726-7.58 16.895-16.554 16.837c-8.975-.058-25.349.115-34.963.058c-9.614-.058-16.646-7.74-16.646-17.254c0-9.515.11-117.71.11-127.072zm14.759.818s-.09 118.144-.09 123.691c0 5.547 3.124 5.315 6.481 5.832c3.358.518 21.454.47 24.402.47c2.947 0 7.085-1.658 7.167-6.14c.08-4.483-.082-119.507-.082-123.249c0-3.742-4.299-4.264-7.085-4.66c-2.787-.395-25.796 0-25.796 0l-4.997 4.056zm76.664-.793c.027-9.804 7.518-17.541 17.125-17.689c9.606-.147 25.283.148 35.004.148c9.72 0 17.397 8.52 17.397 17.77s-.178 117.809-.178 127c0 9.192-7.664 17.12-16.323 17.072c-8.66-.05-26.354 0-34.991.048c-8.638.05-17.98-8.582-18.007-17.783c-.027-9.201-.055-116.763-.027-126.566zm16.917.554s-.089 118.145-.089 123.692c0 5.547 3.123 5.314 6.48 5.832c3.359.518 21.455.47 24.402.47c2.948 0 7.086-1.659 7.167-6.141c.081-4.482-.08-119.506-.08-123.248c0-3.742-4.3-4.265-7.087-4.66c-2.786-.396-25.796 0-25.796 0l-4.997 4.055z"></path>
  </symbol>
  <symbol xmlns="http://www.w3.org/2000/svg" xmlns:xlink="http://www.w3.org/1999/xlink" preserveAspectRatio="xMidYMid meet" viewBox="0 0 36 36" id="play">
    <path  d="M32.16 16.08L8.94 4.47A2.07 2.07 0 0 0 6 6.32v23.21a2.06 2.06 0 0 0 3 1.85l23.16-11.61a2.07 2.07 0 0 0 0-3.7Z"></path>
    <path fill="none" d="M0 0h36v36H0z"></path>
  </symbol>
</svg>